<svg width="28" height="28" viewBox="0 0 28 28" fill="none" xmlns="http://www.w3.org/2000/svg">
  <path fill-rule="evenodd" clip-rule="evenodd" d="M3.09091 0.666664H24.9091C26.248 0.666664 27.3333 1.99323 27.3333 3.62963V12.6667V15.3333V24.3704C27.3333 26.0068 26.248 27.3333 24.9091 27.3333H3.09091C1.75204 27.3333 0.666672 26.0068 0.666672 24.3704V3.62963C0.666672 1.99323 1.75204 0.666664 3.09091 0.666664ZM24.6667 12.6667V3.33333H3.33334V12.6667H7.88562L10.8836 15.6646L15.0163 6.02169L20 12.6667H24.6667ZM3.33334 15.3333H6.78105L11.7831 20.3354L15.6504 11.3116L18.6667 15.3333H24.6667V24.6667H3.33334V15.3333Z" fill="black"/>
</svg>