<svg width="32" height="32" viewBox="0 0 32 32" fill="none" xmlns="http://www.w3.org/2000/svg">
  <path fill-rule="evenodd" clip-rule="evenodd" d="M21.8426 9.33332L24.2991 14.2463L28 16.7136V21.3333H26.439C25.8899 19.7797 24.4083 18.6667 22.6666 18.6667C20.925 18.6667 19.4434 19.7797 18.8943 21.3333H13.1057C12.5566 19.7797 11.0749 18.6667 9.33331 18.6667C7.59169 18.6667 6.11003 19.7797 5.56092 21.3333H3.99998V9.33332H21.8426ZM28 24H26.439C25.8899 25.5536 24.4083 26.6667 22.6666 26.6667C20.925 26.6667 19.4434 25.5536 18.8943 24H13.1057C12.5566 25.5536 11.0749 26.6667 9.33331 26.6667C7.59169 26.6667 6.11004 25.5536 5.56092 24H3.99998C2.52722 24 1.33331 22.8061 1.33331 21.3333V9.33332C1.33331 7.86056 2.52722 6.66666 3.99998 6.66666H21.8426C22.8527 6.66666 23.776 7.23733 24.2277 8.14075L26.3675 12.4203L30.6666 15.2864V21.3333C30.6666 22.8061 29.4727 24 28 24ZM10.6666 22.6667C10.6666 23.403 10.0697 24 9.33331 24C8.59693 24 7.99998 23.403 7.99998 22.6667C7.99998 21.9303 8.59693 21.3333 9.33331 21.3333C10.0697 21.3333 10.6666 21.9303 10.6666 22.6667ZM24 22.6667C24 23.403 23.403 24 22.6666 24C21.9303 24 21.3333 23.403 21.3333 22.6667C21.3333 21.9303 21.9303 21.3333 22.6666 21.3333C23.403 21.3333 24 21.9303 24 22.6667Z" fill="black"/>
</svg>