<svg width="32" height="32" viewBox="0 0 32 32" fill="none" xmlns="http://www.w3.org/2000/svg">
  <path fill-rule="evenodd" clip-rule="evenodd" d="M10.6667 7.99999H8V6.66666H5.33334V10.6667H26.6667V6.66666H24V7.99999H21.3333V6.66666H10.6667V7.99999ZM26.6667 13.3333H5.33334V26.6667H26.6667V13.3333ZM21.3333 3.99999H10.6667V2.66666H8V3.99999H5.33334C3.86058 3.99999 2.66667 5.1939 2.66667 6.66666V26.6667C2.66667 28.1394 3.86058 29.3333 5.33334 29.3333H26.6667C28.1394 29.3333 29.3333 28.1394 29.3333 26.6667V6.66666C29.3333 5.1939 28.1394 3.99999 26.6667 3.99999H24V2.66666H21.3333V3.99999ZM12 18.6667H9.33334V16H12V18.6667ZM14.6667 18.6667H17.3333V16H14.6667V18.6667ZM20 18.6667V16H22.6667V18.6667H20ZM9.33334 24H12V21.3333H9.33334V24ZM17.3333 24H14.6667V21.3333H17.3333V24Z" fill="black"/>
</svg>